<svg width="24" height="24" viewBox="0 0 24 24" fill="none" xmlns="http://www.w3.org/2000/svg">
<g clip-path="url(#clip0_9_541)">
<path d="M20 3H8C5.79 3 4 4.79 4 7V13C4 15.21 5.79 17 8 17H20C22.21 17 24 15.21 24 13V7C24 4.79 22.21 3 20 3ZM22 13C22 14.1 21.1 15 20 15H8C6.9 15 6 14.1 6 13V7C6 5.9 6.9 5 8 5H20C21.1 5 22 5.9 22 7V13ZM19 20C19 20.55 18.55 21 18 21H5C2.24 21 0 18.76 0 16V9C0 8.45 0.45 8 1 8C1.55 8 2 8.45 2 9V16C2 17.65 3.35 19 5 19H18C18.55 19 19 19.45 19 20ZM14 7C12.35 7 11 8.35 11 10C11 11.65 12.35 13 14 13C15.65 13 17 11.65 17 10C17 8.35 15.65 7 14 7ZM14 11C13.45 11 13 10.55 13 10C13 9.45 13.45 9 14 9C14.55 9 15 9.45 15 10C15 10.55 14.55 11 14 11Z" fill="#FF0105"/>
</g>
<defs>
<clipPath id="clip0_9_541">
<rect width="24" height="24" fill="white"/>
</clipPath>
</defs>
</svg>
