<svg width="24" height="24" viewBox="0 0 24 24" fill="none" xmlns="http://www.w3.org/2000/svg">
<g clip-path="url(#clip0_9_545)">
<path d="M14.5998 21.3C14.2998 21.526 13.9808 21.764 13.7098 22H15.9998C16.265 22 16.5194 22.1054 16.7069 22.2929C16.8944 22.4805 16.9998 22.7348 16.9998 23C16.9998 23.2653 16.8944 23.5196 16.7069 23.7072C16.5194 23.8947 16.265 24 15.9998 24H11.9998C11.7346 24 11.4802 23.8947 11.2927 23.7072C11.1052 23.5196 10.9998 23.2653 10.9998 23C10.9998 21.5 12.2748 20.5441 13.3998 19.7001C14.1498 19.1381 14.9998 18.5 14.9998 18C14.9998 17.7348 14.8944 17.4805 14.7069 17.2929C14.5194 17.1054 14.265 17 13.9998 17C13.7346 17 13.4802 17.1054 13.2927 17.2929C13.1052 17.4805 12.9998 17.7348 12.9998 18C12.9998 18.2653 12.8944 18.5196 12.7069 18.7072C12.5194 18.8947 12.265 19 11.9998 19C11.7346 19 11.4802 18.8947 11.2927 18.7072C11.1052 18.5196 10.9998 18.2653 10.9998 18C10.9998 17.2044 11.3159 16.4413 11.8785 15.8787C12.4411 15.3161 13.2042 15 13.9998 15C14.7955 15 15.5585 15.3161 16.1211 15.8787C16.6837 16.4413 16.9998 17.2044 16.9998 18C16.9998 19.5 15.7248 20.456 14.5998 21.3ZM22.9998 15C22.7346 15 22.4802 15.1054 22.2927 15.2929C22.1052 15.4805 21.9998 15.7348 21.9998 16V19H20.9998C20.7346 19 20.4802 18.8947 20.2927 18.7072C20.1052 18.5196 19.9998 18.2653 19.9998 18V16C19.9998 15.7348 19.8944 15.4805 19.7069 15.2929C19.5194 15.1054 19.265 15 18.9998 15C18.7346 15 18.4802 15.1054 18.2927 15.2929C18.1052 15.4805 17.9998 15.7348 17.9998 16V18C17.9998 18.7957 18.3159 19.5588 18.8785 20.1214C19.4411 20.684 20.2042 21 20.9998 21H21.9998V23C21.9998 23.2653 22.1052 23.5196 22.2927 23.7072C22.4802 23.8947 22.7346 24 22.9998 24C23.265 24 23.5194 23.8947 23.7069 23.7072C23.8944 23.5196 23.9998 23.2653 23.9998 23V16C23.9998 15.7348 23.8944 15.4805 23.7069 15.2929C23.5194 15.1054 23.265 15 22.9998 15ZM12.9998 12V7.00005C12.9998 6.73483 12.8944 6.48048 12.7069 6.29294C12.5194 6.10541 12.265 6.00005 11.9998 6.00005C11.7346 6.00005 11.4802 6.10541 11.2927 6.29294C11.1052 6.48048 10.9998 6.73483 10.9998 7.00005V11H7.9998C7.73459 11 7.48023 11.1054 7.2927 11.2929C7.10516 11.4805 6.9998 11.7348 6.9998 12C6.9998 12.2653 7.10516 12.5196 7.2927 12.7072C7.48023 12.8947 7.73459 13 7.9998 13H11.9998C12.265 13 12.5194 12.8947 12.7069 12.7072C12.8944 12.5196 12.9998 12.2653 12.9998 12ZM22.9998 2.00005C22.7346 2.00005 22.4802 2.10541 22.2927 2.29294C22.1052 2.48048 21.9998 2.73483 21.9998 3.00005V5.37405C20.9579 3.80162 19.5599 2.49697 17.9194 1.56595C16.2789 0.634933 14.4419 0.103773 12.5577 0.015569C10.6735 -0.0726351 8.79497 0.284601 7.07463 1.05829C5.3543 1.83198 3.84059 3.00034 2.65632 4.46855C1.47205 5.93677 0.650587 7.66349 0.258576 9.50861C-0.133435 11.3537 -0.0849487 13.2653 0.400101 15.0882C0.88515 16.911 1.7931 18.5939 3.05028 20.0002C4.30746 21.4065 5.87846 22.4966 7.6358 23.182C7.75194 23.2268 7.87533 23.2499 7.9998 23.25C8.23316 23.2504 8.4593 23.1691 8.63905 23.0203C8.8188 22.8715 8.94085 22.6645 8.98406 22.4352C9.02726 22.2059 8.98891 21.9687 8.87563 21.7646C8.76236 21.5606 8.58129 21.4026 8.3638 21.3181C6.87183 20.7411 5.54002 19.8147 4.48019 18.6166C3.42035 17.4184 2.66341 15.9835 2.27291 14.4322C1.88241 12.881 1.86975 11.2587 2.23598 9.70159C2.60221 8.14444 3.33665 6.69788 4.37765 5.48332C5.41865 4.26877 6.73583 3.32167 8.21861 2.72152C9.7014 2.12138 11.3065 1.88571 12.8992 2.03429C14.492 2.18288 16.0258 2.71138 17.372 3.57544C18.7182 4.4395 19.8374 5.6139 20.6358 7.00005H17.9998C17.7346 7.00005 17.4802 7.10541 17.2927 7.29294C17.1052 7.48048 16.9998 7.73483 16.9998 8.00005C16.9998 8.26527 17.1052 8.51962 17.2927 8.70716C17.4802 8.89469 17.7346 9.00005 17.9998 9.00005H20.9998C21.7955 9.00005 22.5585 8.68398 23.1211 8.12137C23.6837 7.55876 23.9998 6.7957 23.9998 6.00005V3.00005C23.9998 2.73483 23.8944 2.48048 23.7069 2.29294C23.5194 2.10541 23.265 2.00005 22.9998 2.00005Z" fill="#FF0105"/>
</g>
<defs>
<clipPath id="clip0_9_545">
<rect width="24" height="24" fill="white"/>
</clipPath>
</defs>
</svg>
